<?xml version="1.0" encoding="UTF-8" standalone="no"?><!-- Generator: Gravit.io --><svg xmlns="http://www.w3.org/2000/svg" xmlns:xlink="http://www.w3.org/1999/xlink" style="isolation:isolate" viewBox="0 0 3700 1080" width="3700pt" height="1080pt"><defs><clipPath id="_clipPath_ikzfKXvY3PZG9htVwwmt9TDAgTOPDvxQ"><rect width="3700" height="1080"/></clipPath></defs><g clip-path="url(#_clipPath_ikzfKXvY3PZG9htVwwmt9TDAgTOPDvxQ)"><rect width="3700" height="1080" style="fill:rgb(0,0,0)" fill-opacity="0"/><defs><linearGradient id="_lgradient_0" x1="0" y1="0.5" x2="1" y2="0.5"><stop offset="0%" style="stop-color:#7BB1BD"/><stop offset="100%" style="stop-color:#BD7BA2"/></linearGradient></defs><path d="M 50 0 L 3650 0 C 3677.596 0 3700 22.404 3700 50 L 3700 1030 C 3700 1057.596 3677.596 1080 3650 1080 L 50 1080 C 22.404 1080 0 1057.596 0 1030 L 0 50 C 0 22.404 22.404 0 50 0 Z" style="stroke:none;fill:url(#_lgradient_0);stroke-miterlimit:10;"/><path d=" M 1276.43 402 L 1342.817 402 C 1346.677 402 1349.811 405.134 1349.811 408.994 L 1349.811 555.994 L 1349.811 555.994 L 1349.811 578.006 L 1349.811 664.5 L 1415.699 664.5 C 1419.559 664.5 1422.693 667.634 1422.693 671.494 L 1422.693 791.75 L 1459.633 791.75 L 1459.633 483 L 1459.633 416.994 L 1459.633 416.994 L 1459.633 414.375 Q 1459.664 411.832 1460.22 410.588 Q 1460.615 409.704 1461.788 408.343 L 1556.68 335.378 Q 1558.463 334.659 1559.471 334.406 Q 1561.313 333.945 1564.272 334.102 C 1564.66 334.035 1565.06 334 1565.467 334 L 1650.318 334 C 1654.178 334 1657.312 337.134 1657.312 340.994 L 1657.312 416.994 L 1657.312 416.994 L 1657.312 430.006 L 1657.312 664.5 L 1679.277 664.5 L 1726.201 664.5 L 1726.201 534.994 C 1726.201 531.134 1729.335 528 1733.195 528 L 1784.113 528 L 1784.113 528 L 1818.052 528 L 1818.052 318.994 C 1818.052 315.134 1821.186 312 1825.046 312 L 1850.998 312 L 1850.998 259.056 C 1850.998 255.196 1854.132 252.062 1857.993 252.062 L 1924.873 252.062 C 1928.733 252.062 1931.867 255.196 1931.867 259.056 L 1931.867 312 L 1957.819 312 C 1961.68 312 1964.814 315.134 1964.814 318.994 L 1964.814 664.5 L 2063.654 664.5 L 2063.654 534.994 C 2063.654 531.134 2066.788 528 2070.648 528 L 2131.543 528 L 2131.543 416.994 C 2131.543 413.134 2134.677 410 2138.538 410 L 2181.462 410 L 2181.462 277.994 C 2181.462 274.134 2184.597 271 2188.457 271 L 2195.434 271 C 2199.294 271 2202.428 274.134 2202.428 277.994 L 2202.428 410 L 2245.353 410 C 2249.213 410 2252.348 413.134 2252.348 416.994 L 2252.348 528 L 2313.243 528 C 2317.103 528 2320.237 531.134 2320.237 534.994 L 2320.237 777 L 2500.944 777 L 2500.944 641.994 C 2500.944 638.134 2504.078 635 2507.939 635 L 2562.844 635 L 2562.844 346.382 C 2562.548 345.602 2562.378 344.679 2562.36 343.628 L 2560.214 220.138 L 2558.068 96.648 C 2557.979 91.534 2561.465 89.523 2565.847 92.16 L 2671.537 155.761 L 2777.226 219.362 C 2777.668 219.628 2778.064 219.909 2778.389 220.211 C 2780.264 221.45 2781.489 223.58 2781.489 225.994 L 2781.489 895 L 2855.37 895 L 2855.37 555.994 C 2855.37 552.134 2858.504 549 2862.364 549 L 2971.182 549 L 2971.182 430.006 L 2971.182 408.994 L 2971.182 408.994 L 2971.182 277.994 C 2971.182 274.134 2974.316 271 2978.176 271 L 3037.569 271 C 3041.429 271 3044.563 274.134 3044.563 277.994 L 3044.563 402 L 3110.95 402 C 3114.81 402 3117.944 405.134 3117.944 408.994 L 3117.944 555.994 L 3117.944 555.994 L 3117.944 578.006 L 3117.944 664.5 L 3183.831 664.5 C 3187.692 664.5 3190.826 667.634 3190.826 671.494 L 3190.826 791.75 L 3227.766 791.75 L 3227.766 483 L 3227.766 416.994 L 3227.766 416.994 L 3227.766 414.375 Q 3227.797 411.832 3228.353 410.588 Q 3228.748 409.704 3229.921 408.343 L 3324.813 335.378 Q 3326.595 334.659 3327.604 334.406 Q 3329.446 333.945 3332.405 334.102 C 3332.793 334.035 3333.192 334 3333.6 334 L 3418.451 334 C 3422.311 334 3425.445 337.134 3425.445 340.994 L 3425.445 416.994 L 3425.445 416.994 L 3425.445 430.006 L 3425.445 664.5 L 3545.251 664.5 L 3545.251 534.994 C 3545.251 531.134 3548.385 528 3552.245 528 L 3693.006 528 C 3696.866 528 3700 531.134 3700 534.994 L 3700 895 L 3700 912.006 L 3700 912.006 L 3700 1080 L 1931.867 1080 L 1931.867 1080 L 82.866 1080 L 14.976 1080 L 0 1080 L 0 913.028 L 0 664.5 L 0 533.972 C 0 530.676 2.676 528 5.972 528 L 49.919 528 L 49.919 318.994 C 49.919 315.134 53.053 312 56.913 312 L 82.866 312 L 82.866 259.056 C 82.866 255.196 86 252.062 89.86 252.062 L 156.74 252.062 C 160.6 252.062 163.734 255.196 163.734 259.056 L 163.734 312 L 189.687 312 C 193.547 312 196.681 315.134 196.681 318.994 L 196.681 664.5 L 295.521 664.5 L 295.521 534.994 C 295.521 531.134 298.655 528 302.515 528 L 363.411 528 L 363.411 416.994 C 363.411 413.134 366.545 410 370.405 410 L 413.33 410 L 413.33 277.994 C 413.33 274.134 416.464 271 420.324 271 L 427.301 271 C 431.162 271 434.296 274.134 434.296 277.994 L 434.296 410 L 477.22 410 C 481.081 410 484.215 413.134 484.215 416.994 L 484.215 528 L 545.11 528 C 548.971 528 552.105 531.134 552.105 534.994 L 552.105 777 L 732.812 777 L 732.812 641.994 C 732.812 638.134 735.946 635 739.806 635 L 794.711 635 L 794.711 346.382 C 794.415 345.602 794.246 344.679 794.227 343.628 L 792.081 220.138 L 789.935 96.648 C 789.846 91.534 793.332 89.523 797.714 92.16 L 903.404 155.761 L 1009.094 219.362 C 1009.535 219.628 1009.931 219.909 1010.256 220.211 C 1012.131 221.45 1013.357 223.58 1013.357 225.994 L 1013.357 895 L 1087.237 895 L 1087.237 555.994 C 1087.237 552.134 1090.371 549 1094.231 549 L 1203.049 549 L 1203.049 430.006 L 1203.049 408.994 L 1203.049 408.994 L 1203.049 277.994 C 1203.049 274.134 1206.183 271 1210.043 271 L 1269.436 271 C 1273.296 271 1276.43 274.134 1276.43 277.994 L 1276.43 402 Z " fill-rule="evenodd" fill="rgb(44,57,70)"/><defs><filter id="QIZ2jNIHj8unUP0qLVEADmS409hpevDV" x="-200%" y="-200%" width="400%" height="400%" filterUnits="objectBoundingBox" color-interpolation-filters="sRGB"><feGaussianBlur xmlns="http://www.w3.org/2000/svg" in="SourceGraphic" stdDeviation="21.46804531419514"/><feOffset xmlns="http://www.w3.org/2000/svg" dx="0" dy="0" result="pf_100_offsetBlur"/><feFlood xmlns="http://www.w3.org/2000/svg" flood-color="#000000" flood-opacity="0.5"/><feComposite xmlns="http://www.w3.org/2000/svg" in2="pf_100_offsetBlur" operator="in" result="pf_100_dropShadow"/><feBlend xmlns="http://www.w3.org/2000/svg" in="SourceGraphic" in2="pf_100_dropShadow" mode="normal"/></filter></defs><g filter="url(#QIZ2jNIHj8unUP0qLVEADmS409hpevDV)"><g clip-path="url(#_clipPath_2VlwdxbCzaWdOhwZ6icMIZ2h5beDDPvH)"><text transform="matrix(1,0,0,1,825.294,718.967)" style="font-family:'Verdana';font-weight:700;font-size:450px;font-style:normal;fill:#d4dce3;stroke:none;">City Fog</text></g><defs><clipPath id="_clipPath_2VlwdxbCzaWdOhwZ6icMIZ2h5beDDPvH"><rect x="0" y="0" width="2681.651" height="546.899" transform="matrix(1,0,0,1,509.174,266.55)"/></clipPath></defs></g></g></svg>