<?xml version="1.0" encoding="UTF-8" standalone="no"?><!-- Generator: Gravit.io --><svg xmlns="http://www.w3.org/2000/svg" xmlns:xlink="http://www.w3.org/1999/xlink" style="isolation:isolate" viewBox="0 0 512 512" width="512pt" height="512pt"><circle vector-effect="non-scaling-stroke" cx="255.99999999999997" cy="255.99999999999997" r="248.9999999999999" fill="rgb(44,57,70)"/><linearGradient id="_lgradient_2" x1="0.5291666666666666" y1="0.0854166666666667" x2="0.4541666666666666" y2="0.7270833333333332" gradientTransform="matrix(466,0,0,466,23,23)" gradientUnits="userSpaceOnUse"><stop offset="0%" stop-opacity="1" style="stop-color:rgb(123,177,189)"/><stop offset="100%" stop-opacity="1" style="stop-color:rgb(189,123,162)"/></linearGradient><circle vector-effect="non-scaling-stroke" cx="256" cy="256" r="233" fill="url(#_lgradient_2)"/><clipPath id="_clipPath_i87OINLQ5tHTiZUBfPb9gnpyLeBbDcp2"><circle vector-effect="non-scaling-stroke" cx="256" cy="256" r="233" fill="url(#_lgradient_2)"/></clipPath><g clip-path="url(#_clipPath_i87OINLQ5tHTiZUBfPb9gnpyLeBbDcp2)"><path d=" M 420.477 244.586 L 439.307 244.586 C 440.423 244.586 441.329 245.492 441.329 246.608 L 441.329 289.854 L 441.329 289.854 L 441.329 296.401 L 441.329 360.608 L 455.021 360.608 L 455.021 325.194 C 455.021 324.078 455.927 323.172 457.043 323.172 L 487.61 323.172 C 488.727 323.172 489.633 324.078 489.633 325.194 L 489.633 360.608 L 688.992 360.608 L 688.992 494.825 L -144.954 494.825 L -144.954 360.608 L 52.125 360.608 L 52.125 283.074 C 52.125 282.29 52.761 281.654 53.545 281.654 L 71.947 281.654 L 71.947 220.131 C 71.947 219.015 72.854 218.108 73.97 218.108 L 81.31 218.108 L 81.31 202.497 C 81.31 201.381 82.216 200.475 83.332 200.475 L 102.267 200.475 C 103.383 200.475 104.29 201.381 104.29 202.497 L 104.29 218.108 L 111.63 218.108 C 112.746 218.108 113.652 219.015 113.652 220.131 L 113.652 321.811 L 141.739 321.811 L 141.739 283.676 C 141.739 282.56 142.645 281.654 143.761 281.654 L 161.03 281.654 L 161.03 248.962 C 161.03 247.845 161.937 246.939 163.053 246.939 L 175.216 246.939 L 175.216 208.069 C 175.216 206.953 176.122 206.047 177.238 206.047 L 179.151 206.047 C 180.267 206.047 181.173 206.953 181.173 208.069 L 181.173 246.939 L 193.336 246.939 C 194.452 246.939 195.358 247.845 195.358 248.962 L 195.358 281.654 L 212.628 281.654 C 213.744 281.654 214.65 282.56 214.65 283.676 L 214.65 354.908 L 266.001 354.908 L 266.001 315.155 C 266.001 314.039 266.907 313.133 268.023 313.133 L 283.59 313.133 L 283.59 228.25 C 283.507 228.027 283.459 227.762 283.454 227.46 L 282.843 191.083 L 282.232 154.706 C 282.207 153.228 283.206 152.662 284.461 153.444 L 314.477 172.144 L 344.492 190.844 C 344.624 190.926 344.741 191.013 344.837 191.107 C 345.372 191.466 345.721 192.078 345.721 192.771 L 345.721 360.608 L 366.715 360.608 L 366.715 289.854 C 366.715 288.738 367.622 287.832 368.738 287.832 L 399.625 287.832 L 399.625 252.86 L 399.625 246.608 L 399.625 246.608 L 399.625 208.069 C 399.625 206.953 400.531 206.047 401.647 206.047 L 418.455 206.047 C 419.571 206.047 420.477 206.953 420.477 208.069 L 420.477 244.586 Z " fill-rule="evenodd" fill="rgb(44,57,70)"/></g><clipPath id="_clipPath_Y0x4P4bVwElDjtfOlLE1jeGteCznmANS"><circle vector-effect="non-scaling-stroke" cx="255.99999999999997" cy="255.99999999999997" r="248.9999999999999" fill="rgb(255,255,255)"/></clipPath><g clip-path="url(#_clipPath_Y0x4P4bVwElDjtfOlLE1jeGteCznmANS)"><rect x="36" y="361" width="461" height="137" transform="matrix(1,0,0,1,0,0)" fill="rgb(44,57,70)"/><rect x="461" y="323" width="36" height="74" transform="matrix(1,0,0,1,0,0)" fill="rgb(44,57,70)"/></g></svg>