<?xml version="1.0" encoding="UTF-8" standalone="no"?><!-- Generator: Gravit.io --><svg xmlns="http://www.w3.org/2000/svg" xmlns:xlink="http://www.w3.org/1999/xlink" style="isolation:isolate" viewBox="0 0 3700 5000" width="3700pt" height="5000pt"><path d=" M 2427.5 402 L 2361 402 C 2357.137 402 2354 405.137 2354 409 L 2354 556 L 2354 556 L 2354 578 L 2354 664.5 L 2288 664.5 C 2284.137 664.5 2281 667.637 2281 671.5 L 2281 791.75 L 2244 791.75 L 2244 483 L 2244 417 L 2244 417 L 2244 414.375 Q 2243.969 411.832 2243.412 410.588 Q 2243.016 409.704 2241.841 408.343 L 2146.795 335.378 Q 2145.01 334.659 2144 334.406 Q 2142.156 333.945 2139.195 334.102 C 2138.806 334.035 2138.407 334 2138 334 L 2053 334 C 2049.137 334 2046 337.137 2046 341 L 2046 417 L 2046 417 L 2046 430 L 2046 664.5 L 2024 664.5 L 1977 664.5 L 1977 535 C 1977 531.137 1973.863 528 1970 528 L 1919 528 L 1919 528 L 1885 528 L 1885 319 C 1885 315.137 1881.863 312 1878 312 L 1852 312 L 1852 259.062 C 1852 255.199 1848.863 252.062 1845 252.062 L 1778 252.062 C 1774.137 252.062 1771 255.199 1771 259.062 L 1771 312 L 1745 312 C 1741.137 312 1738 315.137 1738 319 L 1738 664.5 L 1639 664.5 L 1639 535 C 1639 531.137 1635.863 528 1632 528 L 1571 528 L 1571 417 C 1571 413.137 1567.863 410 1564 410 L 1521 410 L 1521 278 C 1521 274.137 1517.863 271 1514 271 L 1507 271 C 1503.137 271 1500 274.137 1500 278 L 1500 410 L 1457 410 C 1453.137 410 1450 413.137 1450 417 L 1450 528 L 1389 528 C 1385.137 528 1382 531.137 1382 535 L 1382 777 L 1201 777 L 1201 642 C 1201 638.137 1197.863 635 1194 635 L 1139 635 L 1139 346.378 C 1139.297 345.597 1139.467 344.673 1139.485 343.62 L 1141.634 220.138 L 1143.784 96.655 C 1143.873 91.537 1140.383 89.522 1135.995 92.159 L 1030.131 155.761 L 924.267 219.364 C 923.826 219.629 923.43 219.91 923.105 220.21 C 921.227 221.451 920 223.583 920 226 L 920 895 L 846 895 L 846 556 C 846 552.137 842.863 549 839 549 L 730 549 L 730 430 L 730 409 L 730 409 L 730 278 C 730 274.137 726.863 271 723 271 L 663.5 271 C 659.637 271 656.5 274.137 656.5 278 L 656.5 402 L 590 402 C 586.137 402 583 405.137 583 409 L 583 556 L 583 556 L 583 578 L 583 664.5 L 517 664.5 C 513.137 664.5 510 667.637 510 671.5 L 510 791.75 L 473 791.75 L 473 483 L 473 417 L 473 417 L 473 414.375 Q 472.969 411.832 472.412 410.588 Q 472.016 409.704 470.841 408.343 L 375.795 335.378 Q 374.01 334.659 373 334.406 Q 371.156 333.945 368.195 334.102 C 367.806 334.035 367.407 334 367 334 L 282 334 C 278.137 334 275 337.137 275 341 L 275 417 L 275 417 L 275 430 L 275 664.5 L 155 664.5 L 155 535 C 155 531.137 151.863 528 148 528 L 7 528 C 3.137 528 0 531.137 0 535 L 0 895 L 0 912 L 0 912 L 0 1080 L 1771 1080 L 1771 1080 L 3623 1080 L 3691 1080 L 3706 1080 L 3706 913.023 L 3706 664.5 L 3706 533.977 C 3706 530.678 3703.322 528 3700.023 528 L 3656 528 L 3656 319 C 3656 315.137 3652.863 312 3649 312 L 3623 312 L 3623 259.062 C 3623 255.199 3619.863 252.062 3616 252.062 L 3549 252.062 C 3545.137 252.062 3542 255.199 3542 259.062 L 3542 312 L 3516 312 C 3512.137 312 3509 315.137 3509 319 L 3509 664.5 L 3410 664.5 L 3410 535 C 3410 531.137 3406.863 528 3403 528 L 3342 528 L 3342 417 C 3342 413.137 3338.863 410 3335 410 L 3292 410 L 3292 278 C 3292 274.137 3288.863 271 3285 271 L 3278 271 C 3274.137 271 3271 274.137 3271 278 L 3271 410 L 3228 410 C 3224.137 410 3221 413.137 3221 417 L 3221 528 L 3160 528 C 3156.137 528 3153 531.137 3153 535 L 3153 777 L 2972 777 L 2972 642 C 2972 638.137 2968.863 635 2965 635 L 2910 635 L 2910 346.378 C 2910.297 345.597 2910.467 344.673 2910.485 343.62 L 2912.634 220.138 L 2914.784 96.655 C 2914.873 91.537 2911.383 89.522 2906.995 92.159 L 2801.131 155.761 L 2695.267 219.364 C 2694.826 219.629 2694.43 219.91 2694.105 220.21 C 2692.227 221.451 2691 223.583 2691 226 L 2691 895 L 2617 895 L 2617 556 C 2617 552.137 2613.863 549 2610 549 L 2501 549 L 2501 430 L 2501 409 L 2501 409 L 2501 278 C 2501 274.137 2497.863 271 2494 271 L 2434.5 271 C 2430.637 271 2427.5 274.137 2427.5 278 L 2427.5 402 Z " fill-rule="evenodd" fill="rgb(54,71,88)"/><path d=" M 0 3700 Q 920.312 4240.625 1850 3700 Q 2779.688 3159.375 3700 3700 L 3700 1056 L 0 1056" fill="rgb(54,71,88)"/></svg>