<?xml version="1.0" encoding="utf-8"?>
<svg width="1920px" height="4000px" viewBox="0 0 1920 4000" version="1.1" xmlns:xlink="http://www.w3.org/1999/xlink" xmlns="http://www.w3.org/2000/svg">
  <defs>
    <rect width="1920" height="4000" id="artboard_1" />
    <clipPath id="clip_1">
      <use xlink:href="#artboard_1" clip-rule="evenodd" />
    </clipPath>
  </defs>
  <g id="CitySkyline02" clip-path="url(#clip_1)">
    <use xlink:href="#artboard_1" stroke="none" fill="#2C3946" fill-opacity="0" />
    <path d="M10.5 807.001L62 807.001L62 673.001L88.5 673.001L88.5 630.5L132.5 630.5L132.5 445.5L173 445.5L173 673.001L191 673.001L191 720.501L209.5 720.501L209.5 615.5L317.5 615.5L317.5 673.001L353 673.001L353 572L378 572L378 542L407 513L407 400L445 400L445 513L471.5 539.5L471.5 572L445 615.5L445 684.501L528.5 684.501L528.5 221L545 221L545 56.5L545 56.5L545 56.5L561.5 56.5L561.5 221L605.5 265L605.5 684.501L654 733.001L727.5 733.001L727.501 489.5L756.5 489.5L756.5 212.75L812 317.75L812 733.001L874 795L874 0L1041.5 167.5L1041.5 795L1076.5 795L1076.5 632.5L1133 562L1133 795L1201 863.001L1201 632.5L1201 374.5L1239.99 374.5L1239.99 630.5L1392.5 630.5L1549 795L1549 56.5L1651.5 135L1651.5 795L1719.5 863.001L1779 863.001L1779 733.001L1871 656L1871 863.001L1930 807.001L1954.5 807.001L1954.5 1087.5L0 1087.5L10.5 807.001Z" transform="matrix(-1 0 0 1 1944.5005 64)" id="New-shape" fill="#425569" fill-rule="evenodd" stroke="none" />
    <path d="M0.000732421 0L1921 0L1921 1114C1921 1114 1664.48 1214 1330 1214C995.521 1214 927.056 1014 581 1014C234.945 1014 0 1114 0 1114L0.000732421 0Z" transform="translate(-0.0007324219 1127)" id="Rectangle" fill="#425569" fill-rule="evenodd" stroke="none" />
  </g>
</svg>