<?xml version="1.0" encoding="UTF-8" standalone="no"?><!-- Generator: Gravit.io --><svg xmlns="http://www.w3.org/2000/svg" xmlns:xlink="http://www.w3.org/1999/xlink" style="isolation:isolate" viewBox="0 0 3700 5000" width="3700pt" height="5000pt"><path d=" M 1276.43 402 L 1342.822 402 C 1346.68 402 1349.811 405.137 1349.811 409 L 1349.811 556 L 1349.811 556 L 1349.811 578 L 1349.811 664.5 L 1415.704 664.5 C 1419.561 664.5 1422.693 667.637 1422.693 671.5 L 1422.693 791.75 L 1459.633 791.75 L 1459.633 483 L 1459.633 417 L 1459.633 417 L 1459.633 414.375 Q 1459.664 411.832 1460.22 410.588 Q 1460.615 409.704 1461.788 408.343 L 1556.68 335.378 Q 1558.463 334.659 1559.471 334.406 Q 1561.312 333.945 1564.269 334.102 C 1564.656 334.035 1565.055 334 1565.461 334 L 1650.324 334 C 1654.181 334 1657.312 337.137 1657.312 341 L 1657.312 417 L 1657.312 417 L 1657.312 430 L 1657.312 664.5 L 1679.277 664.5 L 1726.201 664.5 L 1726.201 535 C 1726.201 531.137 1729.332 528 1733.189 528 L 1784.107 528 L 1784.107 528 L 1818.052 528 L 1818.052 319 C 1818.052 315.137 1821.183 312 1825.04 312 L 1850.998 312 L 1850.998 259.062 C 1850.998 255.199 1854.13 252.062 1857.987 252.062 L 1924.879 252.062 C 1928.736 252.062 1931.867 255.199 1931.867 259.062 L 1931.867 312 L 1957.825 312 C 1961.682 312 1964.814 315.137 1964.814 319 L 1964.814 664.5 L 2063.654 664.5 L 2063.654 535 C 2063.654 531.137 2066.785 528 2070.642 528 L 2131.543 528 L 2131.543 417 C 2131.543 413.137 2134.675 410 2138.532 410 L 2181.462 410 L 2181.462 278 C 2181.462 274.137 2184.594 271 2188.451 271 L 2195.44 271 C 2199.297 271 2202.428 274.137 2202.428 278 L 2202.428 410 L 2245.359 410 C 2249.216 410 2252.348 413.137 2252.348 417 L 2252.348 528 L 2313.249 528 C 2317.106 528 2320.237 531.137 2320.237 535 L 2320.237 777 L 2500.944 777 L 2500.944 642 C 2500.944 638.137 2504.076 635 2507.933 635 L 2562.844 635 L 2562.844 346.378 C 2562.548 345.597 2562.378 344.673 2562.36 343.62 L 2560.214 220.138 L 2558.068 96.655 C 2557.979 91.537 2561.463 89.522 2565.844 92.159 L 2671.537 155.761 L 2777.229 219.364 C 2777.67 219.629 2778.065 219.91 2778.39 220.21 C 2780.264 221.451 2781.489 223.583 2781.489 226 L 2781.489 895 L 2855.37 895 L 2855.37 556 C 2855.37 552.137 2858.501 549 2862.358 549 L 2971.182 549 L 2971.182 430 L 2971.182 409 L 2971.182 409 L 2971.182 278 C 2971.182 274.137 2974.313 271 2978.171 271 L 3037.574 271 C 3041.431 271 3044.563 274.137 3044.563 278 L 3044.563 402 L 3110.955 402 C 3114.812 402 3117.944 405.137 3117.944 409 L 3117.944 556 L 3117.944 556 L 3117.944 578 L 3117.944 664.5 L 3183.837 664.5 C 3187.694 664.5 3190.826 667.637 3190.826 671.5 L 3190.826 791.75 L 3227.766 791.75 L 3227.766 483 L 3227.766 417 L 3227.766 417 L 3227.766 414.375 Q 3227.797 411.832 3228.353 410.588 Q 3228.748 409.704 3229.921 408.343 L 3324.813 335.378 Q 3326.595 334.659 3327.604 334.406 Q 3329.445 333.945 3332.402 334.102 C 3332.789 334.035 3333.188 334 3333.594 334 L 3418.457 334 C 3422.314 334 3425.445 337.137 3425.445 341 L 3425.445 417 L 3425.445 417 L 3425.445 430 L 3425.445 664.5 L 3545.251 664.5 L 3545.251 535 C 3545.251 531.137 3548.382 528 3552.24 528 L 3693.011 528 C 3696.868 528 3700 531.137 3700 535 L 3700 895 L 3700 912 L 3700 912 L 3700 1080 L 1931.867 1080 L 1931.867 1080 L 82.866 1080 L 14.976 1080 L 0 1080 L 0 913.023 L 0 664.5 L 0 533.977 C 0 530.678 2.674 528 5.967 528 L 49.919 528 L 49.919 319 C 49.919 315.137 53.051 312 56.908 312 L 82.866 312 L 82.866 259.062 C 82.866 255.199 85.997 252.062 89.854 252.062 L 156.746 252.062 C 160.603 252.062 163.734 255.199 163.734 259.062 L 163.734 312 L 189.692 312 C 193.55 312 196.681 315.137 196.681 319 L 196.681 664.5 L 295.521 664.5 L 295.521 535 C 295.521 531.137 298.652 528 302.509 528 L 363.411 528 L 363.411 417 C 363.411 413.137 366.542 410 370.399 410 L 413.33 410 L 413.33 278 C 413.33 274.137 416.461 271 420.318 271 L 427.307 271 C 431.164 271 434.296 274.137 434.296 278 L 434.296 410 L 477.226 410 C 481.083 410 484.215 413.137 484.215 417 L 484.215 528 L 545.116 528 C 548.973 528 552.105 531.137 552.105 535 L 552.105 777 L 732.812 777 L 732.812 642 C 732.812 638.137 735.943 635 739.8 635 L 794.711 635 L 794.711 346.378 C 794.415 345.597 794.245 344.673 794.227 343.62 L 792.081 220.138 L 789.935 96.655 C 789.846 91.537 793.33 89.522 797.711 92.159 L 903.404 155.761 L 1009.097 219.364 C 1009.537 219.629 1009.932 219.91 1010.257 220.21 C 1012.131 221.451 1013.357 223.583 1013.357 226 L 1013.357 895 L 1087.237 895 L 1087.237 556 C 1087.237 552.137 1090.368 549 1094.226 549 L 1203.049 549 L 1203.049 430 L 1203.049 409 L 1203.049 409 L 1203.049 278 C 1203.049 274.137 1206.181 271 1210.038 271 L 1269.441 271 C 1273.299 271 1276.43 274.137 1276.43 278 L 1276.43 402 Z " fill-rule="evenodd" fill="rgb(66,86,106)"/><path d=" M 3700 1850 Q 2779.687 2168.886 1850 1850 Q 920.313 1531.114 0 1850 L 0 1056 L 3700 1056" fill="rgb(66,86,106)"/></svg>