<?xml version="1.0" encoding="utf-8"?>
<svg width="135px" height="83px" viewBox="0 0 135 83" version="1.1" xmlns:xlink="http://www.w3.org/1999/xlink"
	xmlns="http://www.w3.org/2000/svg">
	<defs>
		<rect width="135" height="83" id="artboard_1" />
		<clipPath id="clip_1">
			<use xlink:href="#artboard_1" clip-rule="evenodd" />
		</clipPath>
	</defs>
	<g id="Artboard" clip-path="url(#clip_1)">
		<use xlink:href="#artboard_1" stroke="none" fill="currentColor" fill-opacity="0" />
		<path
			d="M32.2182 0L70.5969 0Q70.8041 0 71.0107 0.0171527Q71.2172 0.0343054 71.4216 0.0684931Q71.626 0.102681 71.8269 0.153669Q72.0277 0.204657 72.2237 0.272095Q72.4196 0.339534 72.6093 0.42296Q72.799 0.506386 72.9812 0.605228Q73.1633 0.704069 73.3367 0.817648Q73.51 0.931226 73.6733 1.05876Q73.8367 1.1863 73.9889 1.32692Q74.1412 1.46753 74.2812 1.62027Q74.4213 1.773 74.5482 1.93681Q74.6752 2.10061 74.7881 2.27436Q74.9011 2.44811 74.9993 2.63061Q75.0975 2.81312 75.1802 3.00312Q75.2629 3.19312 75.3297 3.38932Q75.3964 3.58552 75.4466 3.78657L79.4471 19.7886Q79.4816 19.9262 79.5081 20.0656Q79.5346 20.2049 79.5532 20.3456Q79.5718 20.4862 79.5824 20.6277Q79.593 20.7692 79.5956 20.911Q79.5981 21.0529 79.5926 21.1946Q79.5872 21.3364 79.5736 21.4776Q79.5601 21.6188 79.5386 21.759Q79.5171 21.8993 79.4876 22.0381Q79.4582 22.1768 79.421 22.3137Q79.3837 22.4506 79.3388 22.5852Q79.2938 22.7197 79.2413 22.8515Q79.1888 22.9833 79.1289 23.1119Q79.069 23.2405 79.0019 23.3655Q78.9348 23.4905 78.8607 23.6115Q78.7866 23.7325 78.7058 23.8491Q78.6249 23.9657 78.5376 24.0775Q78.4503 24.1893 78.3568 24.296Q78.2633 24.4027 78.1639 24.5039Q78.0645 24.6051 77.9595 24.7005Q77.8545 24.7959 77.7443 24.8852Q77.6341 24.9745 77.5189 25.0575Q77.4038 25.1404 77.2842 25.2166Q77.1645 25.2929 77.0408 25.3622Q76.917 25.4315 76.7895 25.4938Q76.662 25.556 76.5312 25.6108Q76.4004 25.6657 76.2667 25.7131Q76.1329 25.7605 75.9967 25.8002Q75.8605 25.8399 75.7223 25.8718Q75.5841 25.9037 75.4443 25.9278Q75.3045 25.9518 75.1635 25.9679Q75.0225 25.9839 74.8809 25.992Q74.7393 26 74.5974 26L4.76052 26Q4.68719 26 4.61407 25.9946Q4.54094 25.9893 4.4684 25.9786Q4.39586 25.9678 4.32431 25.9518Q4.25275 25.9359 4.18256 25.9147Q4.11237 25.8935 4.04392 25.8672Q3.97547 25.8409 3.90912 25.8097Q3.84278 25.7784 3.77891 25.7424Q3.71503 25.7064 3.65397 25.6658Q3.5929 25.6252 3.53498 25.5803Q3.47705 25.5353 3.42257 25.4863Q3.36809 25.4372 3.31735 25.3842Q3.26662 25.3313 3.2199 25.2748Q3.17317 25.2183 3.13072 25.1585Q3.08826 25.0987 3.0503 25.036Q3.01233 24.9733 2.97907 24.9079Q2.9458 24.8426 2.91742 24.775Q2.88903 24.7074 2.86567 24.6379Q2.84231 24.5684 2.82411 24.4973Q2.8059 24.4263 2.79295 24.3541Q2.78 24.282 2.77237 24.209Q2.76474 24.1361 2.76247 24.0628Q2.7602 23.9895 2.76331 23.9163Q2.76642 23.843 2.77489 23.7702Q2.78336 23.6973 2.79714 23.6253Q2.81092 23.5533 2.82994 23.4825Q2.84896 23.4117 2.87312 23.3425Q2.89727 23.2732 2.92644 23.2059Q2.9556 23.1387 2.98961 23.0737Q3.02363 23.0088 3.06231 22.9465Q3.10099 22.8842 3.14413 22.8249Q3.18727 22.7656 3.23464 22.7096Q3.28201 22.6537 3.33335 22.6013L20.7959 4.79637Q21.353 4.22828 21.9638 3.71828Q22.5746 3.20827 23.233 2.76139Q23.8914 2.31451 24.5908 1.93517Q25.2903 1.55582 26.0239 1.24775Q26.7576 0.939676 27.5182 0.705922Q28.2788 0.472168 29.0589 0.315039Q29.8389 0.157909 30.6307 0.0789544Q31.4225 0 32.2182 0Z"
			transform="translate(24 30)" id="Rectangle" fill="currentColor" fill-rule="evenodd" stroke="none" />
	</g>
</svg>