<?xml version="1.0" encoding="UTF-8" standalone="no"?><!-- Generator: Gravit.io --><svg xmlns="http://www.w3.org/2000/svg" xmlns:xlink="http://www.w3.org/1999/xlink" style="isolation:isolate" viewBox="0 0 1920 1080" width="1920pt" height="1080pt"><path d=" M 1297 635 L 1276 664 L 1175 670 L 1249 510 L 1297 520 L 1297 635 Z " fill="rgb(54,70,87)"/><path d=" M 1241 566 Q 1283.375 549.5 1276 631 C 1268.625 712.5 1263.875 757.75 1239 780 C 1224.987 792.534 1192.906 784.766 1177 784 C 1154.251 782.905 1155.746 726.737 1155 706 Q 1153.333 659.667 1241 566 Z " fill="rgb(54,70,87)"/><path d=" M 1355.487 501.106 Q 1372.526 494.472 1369.56 527.242 C 1366.595 560.012 1364.685 578.207 1354.683 587.153 C 1349.049 592.193 1336.149 589.07 1329.754 588.762 C 1320.606 588.322 1321.208 565.737 1320.908 557.399 Q 1320.237 538.769 1355.487 501.106 Z " fill="rgb(54,70,87)"/><path d=" M 1363 562 Q 1367.953 512.125 1371 503 Q 1374.047 493.875 1366 488 L 1346 562 L 1363 562 Z " fill="rgb(54,70,87)"/><path d=" M 1195 335 C 1165.438 328.188 920.5 319.75 881 340 C 841.5 360.25 759.25 415 737 418 C 714.75 421 637 408.5 611 433 C 585 457.5 580 493.25 575 514 C 570 534.75 576.5 554.5 547 569 C 517.5 583.5 576.5 696.75 589 702 C 601.5 707.25 1076 769.5 1102 765 C 1128 760.5 1149.75 728.25 1176 729 C 1202.25 729.75 1218.5 731.75 1225 721 C 1231.5 710.25 1239.5 587.5 1270 557 Q 1300.5 526.5 1276 664 L 1351 575 Q 1357.563 502.125 1370 492 Q 1364.313 483.625 1355 485 Q 1357.188 468.313 1343 457 C 1328.813 445.688 1285.25 396 1256 368 C 1226.75 340 1224.563 341.813 1195 335 Z " fill="rgb(66,86,106)"/><path d=" M 1172 425 Q 1183.583 368.744 1184 352 C 1184.375 336.956 895 331.294 867 356.294 Q 826.669 392.305 759 423 Q 1152.667 429.974 1161 428.511 Q 1169.333 427.048 1172 425 Z " fill="rgb(44,57,70)"/><path d=" M 641.354 418.893 Q 641.748 415.155 631.588 386.495 Q 589.412 377.247 589.118 371.857 C 588.824 366.467 588.699 359.957 593.575 360.019 C 598.451 360.081 1071.975 352.219 1091.669 367.11 Q 1111.363 382 1146.753 444.277 L 1091.563 448.165 L 1087.598 394.974 L 873.526 392.77 L 881.178 428.089 L 826.218 425.982 L 817.452 393.622 L 678.286 395.291 Q 741.361 407.592 755.27 423.261 Q 769.18 438.931 755.27 423.261 Q 640.961 422.631 641.354 418.893 Z " fill="rgb(54,70,87)"/><path d=" M 1316 436 Q 1309.125 416.5 1332 416 C 1354.875 415.5 1359.75 415 1362 419 C 1364.25 423 1366.438 439.188 1363 443 Q 1359.563 446.813 1326 446 L 1316 436 Z " fill="rgb(66,86,106)"/><path d="M 970.287 469.939 L 1115.108 477.16 C 1118.967 477.352 1121.944 480.641 1121.751 484.499 L 1118.813 543.419 C 1118.62 547.277 1115.331 550.254 1111.473 550.061 L 966.652 542.84 C 962.793 542.648 959.816 539.359 960.009 535.501 L 962.947 476.581 C 963.14 472.723 966.429 469.746 970.287 469.939 Z" style="stroke:none;fill:#364657;stroke-miterlimit:10;"/><path d="M 963.106 550.653 L 1007.466 552.865 C 1008.669 552.925 1009.597 553.951 1009.537 555.154 L 1008.603 573.896 C 1008.543 575.099 1007.517 576.027 1006.314 575.967 L 961.954 573.755 C 960.751 573.695 959.823 572.669 959.883 571.466 L 960.817 552.724 C 960.877 551.521 961.903 550.593 963.106 550.653 Z" style="stroke:none;fill:#364657;stroke-miterlimit:10;"/><path d="M 1020.47 553.004 L 1112.833 557.609 C 1114.56 557.696 1115.892 559.167 1115.806 560.894 L 1114.945 578.153 C 1114.859 579.88 1113.387 581.212 1111.66 581.126 L 1019.297 576.521 C 1017.57 576.434 1016.238 574.963 1016.324 573.236 L 1017.185 555.977 C 1017.271 554.25 1018.743 552.918 1020.47 553.004 Z" style="stroke:none;fill:#364657;stroke-miterlimit:10;"/><path d="M 614.211 452.323 L 710.911 458.885 C 713.917 459.089 716.191 461.695 715.987 464.7 L 712.295 519.111 C 712.091 522.116 709.485 524.391 706.479 524.187 L 609.779 517.625 C 606.773 517.421 604.499 514.815 604.703 511.81 L 608.395 457.399 C 608.599 454.394 611.205 452.119 614.211 452.323 Z" style="stroke:none;fill:#364657;stroke-miterlimit:10;"/><path d="M 608.452 524.446 L 667.393 528.445 C 668.738 528.536 669.756 529.702 669.664 531.046 L 668.5 548.204 C 668.409 549.548 667.243 550.566 665.898 550.474 L 606.957 546.475 C 605.612 546.384 604.594 545.218 604.686 543.874 L 605.85 526.716 C 605.941 525.372 607.107 524.354 608.452 524.446 Z" style="stroke:none;fill:#364657;stroke-miterlimit:10;"/><path d="M 677.445 528.734 L 710.2 530.957 C 711.216 531.026 711.985 531.906 711.916 532.922 L 710.671 551.27 C 710.602 552.286 709.721 553.055 708.705 552.986 L 675.95 550.763 C 674.934 550.694 674.165 549.814 674.234 548.798 L 675.479 530.45 C 675.548 529.434 676.429 528.665 677.445 528.734 Z" style="stroke:none;fill:#364657;stroke-miterlimit:10;"/><g><path d=" M 968 751 L 994 728 L 1026 752 L 987 785 L 968 751 Z " fill="rgb(66,86,106)"/><ellipse vector-effect="non-scaling-stroke" cx="977.5" cy="768.1162523911759" rx="17.5" ry="20.11625239117575" fill="rgb(66,86,106)"/><ellipse vector-effect="non-scaling-stroke" cx="977.5" cy="768.116252391176" rx="13.150283248663982" ry="15.116252391175749" fill="rgb(44,57,70)"/></g><g><path d=" M 1013 755.767 L 1039 732.767 L 1071 756.767 L 1032 789.767 L 1013 755.767 Z " fill="rgb(66,86,106)"/><ellipse vector-effect="non-scaling-stroke" cx="1022.5" cy="772.8837476088243" rx="17.5" ry="20.11625239117575" fill="rgb(66,86,106)"/><ellipse vector-effect="non-scaling-stroke" cx="1022.5" cy="772.8837476088244" rx="13.150283248663982" ry="15.116252391175749" fill="rgb(44,57,70)"/></g><g><path d=" M 612.909 703.209 L 636.535 683.441 L 663.319 706.557 L 627.945 734.848 L 612.909 703.209 Z " fill="rgb(66,86,106)"/><path d=" M 605.199 718.397 C 605.686 708.327 612.903 700.481 621.304 700.887 C 629.706 701.294 636.132 709.8 635.645 719.87 C 635.158 729.941 627.941 737.787 619.539 737.38 C 611.137 736.974 604.711 728.468 605.199 718.397 Z " fill="rgb(66,86,106)"/><path d=" M 608.982 718.58 C 609.348 711.013 614.771 705.117 621.085 705.423 C 627.399 705.728 632.227 712.12 631.861 719.687 C 631.495 727.255 626.072 733.15 619.759 732.845 C 613.445 732.54 608.616 726.148 608.982 718.58 Z " fill="rgb(44,57,70)"/></g><g><path d=" M 651.845 709.427 L 675.472 689.659 L 702.255 712.775 L 666.881 741.066 L 651.845 709.427 Z " fill="rgb(66,86,106)"/><path d=" M 644.135 724.615 C 644.622 714.545 651.839 706.699 660.241 707.105 C 668.643 707.512 675.068 716.018 674.581 726.088 C 674.094 736.159 666.877 744.005 658.475 743.598 C 650.073 743.192 643.648 734.686 644.135 724.615 Z " fill="rgb(66,86,106)"/><path d=" M 647.919 724.798 C 648.285 717.231 653.708 711.335 660.021 711.641 C 666.335 711.946 671.164 718.338 670.797 725.905 C 670.431 733.473 665.008 739.368 658.695 739.063 C 652.381 738.758 647.553 732.366 647.919 724.798 Z " fill="rgb(44,57,70)"/></g><path d=" M 1222 379 C 1225.554 400.515 1230 432.089 1239 436 C 1248 439.911 1302 445 1311 446 C 1320 447 1263.667 387.667 1241 369 C 1215.54 348.033 1217.109 349.391 1222 379 Z " fill="rgb(44,57,70)"/></svg>